# xmcd
#
# Track frame offsets: 
#        150
#        13573
#        31458
#        47250
#        65230
#        83201
#        100691
#        115012
#        127669
#        140325
#        154405
#        169627
#        187428
#        204229
#        219459
#        235471
#        252597
#        270860
#        284002
#        301232
#        318928
#        334639
#        348057
#
# Disc length: 4788 seconds
#
# Revision: 0
# Processed by: cddbd v1.5.2PL0 Copyright (c) Steve Scherf et al.
# Submitted via: ExactAudioCopy v0.99pb4
#
DISCID=4412b217
DTITLE=Various Artist - prevue promo 1098A-1
DYEAR=2002
DGENRE=pop
TTITLE0=Bon Jovi - Everyday
TTITLE1=Laura Pausini - Surrender
TTITLE2=Flaming Lips, The - Do You Realize??
TTITLE3=Tori Amos - A Sorta Fairytale
TTITLE4=Sixpence None The Richer - Breathe Your Name
TTITLE5=Sugababe - Round Round(Alternative Mix)
TTITLE6=Nick Carter - Help Me
TTITLE7=M-Factor - Mother(Instrumental - Original Radio Edit)
TTITLE8=M-Factor - Mother (Are You Ready To Play - Radio Edit)
TTITLE9=Play feat. Chris Trousdale of Dream Street - I'm Gonna Make Yo
TTITLE9=u Love Me
TTITLE10=Shaggy feat. Brian and Tony Gold - Hey Sexy Lady
TTITLE11=Amerie - Talkin' To Me
TTITLE12=Lamya - Empires
TTITLE13=Blu Cantrell - Breathe
TTITLE14=Paul Thorn - Mission Temple Fireworks Stand
TTITLE15=Al Jarreau duet with Joe Cocker - Lost And Found(Short Intro)
TTITLE16=Jackson Browne - Night Inside Me, The
TTITLE17=Neko Case - Stinging Velvet
TTITLE18=Brad - La, La, La(Lyric!!)
TTITLE19=Marc Copely - Right To My Head
TTITLE20=Distillers - City Of Angels
TTITLE21=Bon Jovi - Everyday(Rock Mix)
TTITLE22=Fear Factory - Concrete
EXTD=
EXTT0=
EXTT1=
EXTT2=
EXTT3=
EXTT4=
EXTT5=
EXTT6=
EXTT7=
EXTT8=
EXTT9=
EXTT10=
EXTT11=
EXTT12=
EXTT13=
EXTT14=
EXTT15=
EXTT16=
EXTT17=
EXTT18=
EXTT19=
EXTT20=
EXTT21=
EXTT22=
PLAYORDER=
